<!--?xml version="1.0" standalone="no"?-->
              <svg id="sw-js-blob-svg" viewBox="0 0 100 100" xmlns="http://www.w3.org/2000/svg" version="1.1">
                    <defs> 
                        <linearGradient id="sw-gradient" x1="0" x2="1" y1="1" y2="0">
                            <stop id="stop1" stop-color="rgba(243.989, 244.167, 100.026, 1)" offset="0%"></stop>
                            <stop id="stop2" stop-color="rgba(0, 203.168, 255, 1)" offset="100%"></stop>
                        </linearGradient>
                    </defs>
                <path fill="none" d="M21.8,-26.7C23.7,-24.4,17.7,-13.2,19.4,-3.4C21.1,6.4,30.7,14.8,29.8,18C28.9,21.1,17.5,19,8.6,21.3C-0.4,23.7,-7,30.4,-9.8,28.6C-12.6,26.8,-11.6,16.5,-11.1,10C-10.5,3.5,-10.4,0.8,-12.5,-4.8C-14.6,-10.5,-18.9,-19.1,-17.2,-21.4C-15.5,-23.7,-7.8,-19.7,1.1,-21C9.9,-22.3,19.9,-28.9,21.8,-26.7Z" width="100%" height="100%" transform="translate(50 50)" stroke-width="1" style="transition: all 0.3s ease 0s;" stroke="url(#sw-gradient)"></path>
              </svg>